<svg width="40" height="40" viewBox="0 0 40 40" fill="none" xmlns="http://www.w3.org/2000/svg">
<g clip-path="url(#clip0_3410_39924)">
<rect width="40" height="40" rx="20" fill="#5C1073"/>
<circle cx="19.9997" cy="20.0002" r="19.0931" stroke="url(#paint0_linear_3410_39924)" stroke-width="1.94306"/>
<path fill-rule="evenodd" clip-rule="evenodd" d="M32.319 22.286C32.8564 22.7765 33.5714 23.0757 34.3563 23.0757C36.0257 23.0757 37.3789 21.7225 37.3789 20.0531C37.3789 18.3838 36.0257 17.0306 34.3563 17.0306C33.5872 17.0306 32.8852 17.3178 32.3518 17.7909L28.9376 13.2775C28.695 12.9568 28.1838 13.1284 28.1838 13.5305V16.7262L23.2699 19.0705C22.4753 19.4496 22.4735 20.5799 23.2669 20.9616L28.1837 23.3265V26.5187C28.1837 26.9212 28.6957 27.0925 28.938 26.7711L32.319 22.286Z" fill="url(#paint1_linear_3410_39924)"/>
<path fill-rule="evenodd" clip-rule="evenodd" d="M17.7177 32.31C17.2249 32.8455 16.9229 33.5595 16.9198 34.3445C16.9134 36.0138 18.2614 37.3723 19.9307 37.3787C21.6 37.3852 22.9585 36.0371 22.9649 34.3678C22.9679 33.5989 22.6835 32.8958 22.2126 32.3606L26.7394 28.9636C27.0611 28.7222 26.8915 28.2104 26.4893 28.2088L23.2937 28.1965L20.9684 23.2736C20.5924 22.4776 19.462 22.4714 19.0773 23.2633L16.6934 28.1709L13.5013 28.1586C13.0988 28.1571 12.9255 28.6684 13.2459 28.9119L17.7177 32.31Z" fill="url(#paint2_linear_3410_39924)"/>
<path fill-rule="evenodd" clip-rule="evenodd" d="M7.75123 17.67C7.21769 17.1753 6.50496 16.8705 5.72003 16.8645C4.05075 16.8516 2.68709 18.1944 2.67421 19.8636C2.66132 21.5329 4.00408 22.8966 5.67336 22.9095C6.44238 22.9154 7.14655 22.6336 7.68365 22.1647L11.0629 26.7044C11.3031 27.027 11.8156 26.8593 11.8187 26.4572L11.8434 23.2617L16.7752 20.9554C17.5726 20.5824 17.5832 19.4521 16.7928 19.0644L11.8944 16.6615L11.919 13.4695C11.9221 13.067 11.4115 12.8917 11.1667 13.2112L7.75123 17.67Z" fill="url(#paint3_linear_3410_39924)"/>
<path fill-rule="evenodd" clip-rule="evenodd" d="M22.4304 7.76059C22.9272 7.22896 23.2347 6.5174 23.2438 5.7325C23.2631 4.06329 21.9256 2.69446 20.2564 2.67513C18.5872 2.65579 17.2183 3.99328 17.199 5.66249C17.1901 6.43154 17.4692 7.13682 17.9361 7.67574L13.3834 11.0375C13.0599 11.2764 13.2255 11.7895 13.6276 11.7942L16.823 11.8312L19.1103 16.7718C19.4802 17.5708 20.6105 17.5857 21.0012 16.7967L23.423 11.9077L26.6149 11.9446C27.0174 11.9493 27.1947 11.4394 26.8761 11.1934L22.4304 7.76059Z" fill="url(#paint4_linear_3410_39924)"/>
</g>
<defs>
<linearGradient id="paint0_linear_3410_39924" x1="22.3788" y1="-7.10809" x2="16.5409" y2="46.7144" gradientUnits="userSpaceOnUse">
<stop stop-color="#FFC85F"/>
<stop offset="1" stop-color="#DF2D62"/>
</linearGradient>
<linearGradient id="paint1_linear_3410_39924" x1="39.9602" y1="20.8444" x2="20.2661" y2="18.5728" gradientUnits="userSpaceOnUse">
<stop stop-color="#FFC85F"/>
<stop offset="1" stop-color="#DF2D62"/>
</linearGradient>
<linearGradient id="paint2_linear_3410_39924" x1="19.13" y1="39.9569" x2="21.4777" y2="20.2717" gradientUnits="userSpaceOnUse">
<stop stop-color="#FFC85F"/>
<stop offset="1" stop-color="#DF2D62"/>
</linearGradient>
<linearGradient id="paint3_linear_3410_39924" x1="0.0991392" y1="19.0526" x2="19.7751" y2="21.4763" gradientUnits="userSpaceOnUse">
<stop stop-color="#FFC85F"/>
<stop offset="1" stop-color="#DF2D62"/>
</linearGradient>
<linearGradient id="paint4_linear_3410_39924" x1="21.0774" y1="0.103207" x2="18.5778" y2="19.7697" gradientUnits="userSpaceOnUse">
<stop stop-color="#FFC85F"/>
<stop offset="1" stop-color="#DF2D62"/>
</linearGradient>
<clipPath id="clip0_3410_39924">
<rect width="40" height="40" rx="20" fill="white"/>
</clipPath>
</defs>
</svg>
